<svg width="1044" height="348" viewBox="0 0 1044 348" fill="none" xmlns="http://www.w3.org/2000/svg">
<path d="M201.778 75.0495C210.605 75.0495 217.761 68.061 217.761 59.4404C217.761 50.8198 210.605 43.8313 201.778 43.8313C192.951 43.8313 185.796 50.8198 185.796 59.4404C185.796 68.061 192.951 75.0495 201.778 75.0495Z" fill="#F6F8FC"/>
<path d="M219.744 295.532C228.569 295.532 235.726 288.542 235.726 279.922C235.726 271.301 228.569 264.312 219.744 264.312C210.917 264.312 203.761 271.301 203.761 279.922C203.761 288.542 210.917 295.532 219.744 295.532Z" fill="#F6F8FC"/>
<path d="M206.34 114.07C213.748 114.07 219.754 108.204 219.754 100.969C219.754 93.734 213.748 87.8687 206.34 87.8687C198.932 87.8687 192.926 93.734 192.926 100.969C192.926 108.204 198.932 114.07 206.34 114.07Z" fill="#F6F8FC"/>
<path d="M242.01 119.084C249.42 119.084 255.425 113.219 255.425 105.984C255.425 98.7489 249.42 92.8835 242.01 92.8835C234.602 92.8835 228.598 98.7489 228.598 105.984C228.598 113.219 234.602 119.084 242.01 119.084Z" fill="#F6F8FC"/>
<path d="M201.769 147.244C208.074 147.244 213.185 142.253 213.185 136.095C213.185 129.937 208.074 124.946 201.769 124.946C195.464 124.946 190.353 129.937 190.353 136.095C190.353 142.253 195.464 147.244 201.769 147.244Z" fill="#F6F8FC"/>
<path d="M237.441 151.983C243.745 151.983 248.856 146.991 248.856 140.834C248.856 134.676 243.745 129.684 237.441 129.684C231.135 129.684 226.024 134.676 226.024 140.834C226.024 146.991 231.135 151.983 237.441 151.983Z" fill="#F6F8FC"/>
<path d="M265.982 162.849C272.286 162.849 277.397 157.858 277.397 151.7C277.397 145.543 272.286 140.551 265.982 140.551C259.676 140.551 254.565 145.543 254.565 151.7C254.565 157.858 259.676 162.849 265.982 162.849Z" fill="#F6F8FC"/>
<path d="M226.899 178.739C232.417 178.739 236.888 174.371 236.888 168.983C236.888 163.595 232.417 159.227 226.899 159.227C221.382 159.227 216.91 163.595 216.91 168.983C216.91 174.371 221.382 178.739 226.899 178.739Z" fill="#F6F8FC"/>
<path d="M191.228 174C196.744 174 201.217 169.632 201.217 164.244C201.217 158.857 196.744 154.489 191.228 154.489C185.711 154.489 181.239 158.857 181.239 164.244C181.239 169.632 185.711 174 191.228 174Z" fill="#F6F8FC"/>
<path d="M255.727 189.603C261.242 189.603 265.716 185.235 265.716 179.847C265.716 174.46 261.242 170.092 255.727 170.092C250.209 170.092 245.738 174.46 245.738 179.847C245.738 185.235 250.209 189.603 255.727 189.603Z" fill="#F6F8FC"/>
<path d="M212.63 199.08C217.358 199.08 221.192 195.336 221.192 190.718C221.192 186.1 217.358 182.356 212.63 182.356C207.901 182.356 204.068 186.1 204.068 190.718C204.068 195.336 207.901 199.08 212.63 199.08Z" fill="#F6F8FC"/>
<path d="M241.457 209.677C246.186 209.677 250.018 205.933 250.018 201.315C250.018 196.696 246.186 192.953 241.457 192.953C236.728 192.953 232.894 196.696 232.894 201.315C232.894 205.933 236.728 209.677 241.457 209.677Z" fill="#F6F8FC"/>
<path d="M177.241 194.063C181.97 194.063 185.803 190.319 185.803 185.701C185.803 181.083 181.97 177.339 177.241 177.339C172.513 177.339 168.679 181.083 168.679 185.701C168.679 190.319 172.513 194.063 177.241 194.063Z" fill="#F6F8FC"/>
<path d="M196.919 212.739C200.86 212.739 204.054 209.619 204.054 205.77C204.054 201.922 200.86 198.802 196.919 198.802C192.979 198.802 189.784 201.922 189.784 205.77C189.784 209.619 192.979 212.739 196.919 212.739Z" fill="#F6F8FC"/>
<path d="M209.191 231.975C212.659 231.975 215.47 229.23 215.47 225.843C215.47 222.457 212.659 219.712 209.191 219.712C205.724 219.712 202.913 222.457 202.913 225.843C202.913 229.23 205.724 231.975 209.191 231.975Z" fill="#F6F8FC"/>
<path d="M194.072 235.881C196.909 235.881 199.209 233.636 199.209 230.865C199.209 228.094 196.909 225.848 194.072 225.848C191.235 225.848 188.935 228.094 188.935 230.865C188.935 233.636 191.235 235.881 194.072 235.881Z" fill="#F6F8FC"/>
<path d="M180.647 221.387C184.115 221.387 186.926 218.642 186.926 215.255C186.926 211.868 184.115 209.123 180.647 209.123C177.179 209.123 174.368 211.868 174.368 215.255C174.368 218.642 177.179 221.387 180.647 221.387Z" fill="#F6F8FC"/>
<path d="M161.248 208.011C165.188 208.011 168.383 204.891 168.383 201.042C168.383 197.194 165.188 194.074 161.248 194.074C157.307 194.074 154.113 197.194 154.113 201.042C154.113 204.891 157.307 208.011 161.248 208.011Z" fill="#F6F8FC"/>
<path d="M160.965 155.596C164.905 155.596 168.1 152.476 168.1 148.628C168.1 144.779 164.905 141.66 160.965 141.66C157.024 141.66 153.83 144.779 153.83 148.628C153.83 152.476 157.024 155.596 160.965 155.596Z" fill="#F6F8FC"/>
<path d="M164.1 131.072C167.567 131.072 170.379 128.326 170.379 124.939C170.379 121.553 167.567 118.807 164.1 118.807C160.632 118.807 157.821 121.553 157.821 124.939C157.821 128.326 160.632 131.072 164.1 131.072Z" fill="#F6F8FC"/>
<path d="M170.961 111.008C173.798 111.008 176.098 108.762 176.098 105.991C176.098 103.22 173.798 100.974 170.961 100.974C168.123 100.974 165.823 103.22 165.823 105.991C165.823 108.762 168.123 111.008 170.961 111.008Z" fill="#F6F8FC"/>
<path d="M158.977 101.531C162.444 101.531 165.256 98.785 165.256 95.3986C165.256 92.0119 162.444 89.2664 158.977 89.2664C155.509 89.2664 152.698 92.0119 152.698 95.3986C152.698 98.785 155.509 101.531 158.977 101.531Z" fill="#F6F8FC"/>
<path d="M225.464 223.338C229.405 223.338 232.599 220.219 232.599 216.369C232.599 212.521 229.405 209.401 225.464 209.401C221.523 209.401 218.328 212.521 218.328 216.369C218.328 220.219 221.523 223.338 225.464 223.338Z" fill="#F6F8FC"/>
<path d="M142.693 93.4474C146.634 93.4474 149.828 90.3276 149.828 86.4791C149.828 82.6304 146.634 79.5106 142.693 79.5106C138.752 79.5106 135.558 82.6304 135.558 86.4791C135.558 90.3276 138.752 93.4474 142.693 93.4474Z" fill="#F6F8FC"/>
<path d="M147.557 122.99C151.497 122.99 154.692 119.871 154.692 116.022C154.692 112.173 151.497 109.054 147.557 109.054C143.616 109.054 140.422 112.173 140.422 116.022C140.422 119.871 143.616 122.99 147.557 122.99Z" fill="#F6F8FC"/>
<path d="M139.563 151.147C144.291 151.147 148.125 147.403 148.125 142.785C148.125 138.167 144.291 134.423 139.563 134.423C134.834 134.423 131.001 138.167 131.001 142.785C131.001 147.403 134.834 151.147 139.563 151.147Z" fill="#F6F8FC"/>
<path d="M113.581 151.139C119.097 151.139 123.57 146.771 123.57 141.383C123.57 135.996 119.097 131.628 113.581 131.628C108.064 131.628 103.592 135.996 103.592 141.383C103.592 146.771 108.064 151.139 113.581 151.139Z" fill="#F6F8FC"/>
<path d="M83.3277 157.833C89.6325 157.833 94.7437 152.841 94.7437 146.683C94.7437 140.526 89.6325 135.534 83.3277 135.534C77.0228 135.534 71.9116 140.526 71.9116 146.683C71.9116 152.841 77.0228 157.833 83.3277 157.833Z" fill="#F6F8FC"/>
<path d="M50.2433 173.718C57.6515 173.718 63.6571 167.853 63.6571 160.618C63.6571 153.383 57.6515 147.518 50.2433 147.518C42.8351 147.518 36.8297 153.383 36.8297 160.618C36.8297 167.853 42.8351 173.718 50.2433 173.718Z" fill="#F6F8FC"/>
<path d="M15.9823 200.479C24.8092 200.479 31.9646 193.491 31.9646 184.87C31.9646 176.25 24.8092 169.261 15.9823 169.261C7.15553 169.261 0 176.25 0 184.87C0 193.491 7.15553 200.479 15.9823 200.479Z" fill="#F6F8FC"/>
<path d="M36.8083 141.115C44.2167 141.115 50.2222 135.25 50.2222 128.014C50.2222 120.779 44.2167 114.914 36.8083 114.914C29.4002 114.914 23.3947 120.779 23.3947 128.014C23.3947 135.25 29.4002 141.115 36.8083 141.115Z" fill="#F6F8FC"/>
<path d="M69.916 125.216C76.2209 125.216 81.3321 120.224 81.3321 114.067C81.3321 107.909 76.2209 102.917 69.916 102.917C63.6112 102.917 58.5 107.909 58.5 114.067C58.5 120.224 63.6112 125.216 69.916 125.216Z" fill="#F6F8FC"/>
<path d="M65.0758 95.6708C71.3807 95.6708 76.4919 90.6792 76.4919 84.5216C76.4919 78.3639 71.3807 73.3723 65.0758 73.3723C58.7712 73.3723 53.66 78.3639 53.66 84.5216C53.66 90.6792 58.7712 95.6708 65.0758 95.6708Z" fill="#F6F8FC"/>
<path d="M95.3323 88.9902C100.849 88.9902 105.321 84.6225 105.321 79.2346C105.321 73.8467 100.849 69.4789 95.3323 69.4789C89.8156 69.4789 85.3432 73.8467 85.3432 79.2346C85.3432 84.6225 89.8156 88.9902 95.3323 88.9902Z" fill="#F6F8FC"/>
<path d="M121.291 88.9896C126.02 88.9896 129.853 85.2458 129.853 80.6276C129.853 76.0095 126.02 72.2656 121.291 72.2656C116.563 72.2656 112.729 76.0095 112.729 80.6276C112.729 85.2458 116.563 88.9896 121.291 88.9896Z" fill="#F6F8FC"/>
<path d="M126.155 118.531C130.883 118.531 134.717 114.787 134.717 110.169C134.717 105.55 130.883 101.807 126.155 101.807C121.426 101.807 117.593 105.55 117.593 110.169C117.593 114.787 121.426 118.531 126.155 118.531Z" fill="#F6F8FC"/>
<path d="M100.172 118.809C105.689 118.809 110.161 114.442 110.161 109.054C110.161 103.666 105.689 99.2981 100.172 99.2981C94.6555 99.2981 90.1834 103.666 90.1834 109.054C90.1834 114.442 94.6555 118.809 100.172 118.809Z" fill="#F6F8FC"/>
<path d="M71.9258 192.955C74.7631 192.955 77.063 190.709 77.063 187.938C77.063 185.167 74.7631 182.921 71.9258 182.921C69.0886 182.921 66.7887 185.167 66.7887 187.938C66.7887 190.709 69.0886 192.955 71.9258 192.955Z" fill="#F6F8FC"/>
<path d="M92.4709 190.449C95.9385 190.449 98.7497 187.703 98.7497 184.316C98.7497 180.93 95.9385 178.184 92.4709 178.184C89.0032 178.184 86.1922 180.93 86.1922 184.316C86.1922 187.703 89.0032 190.449 92.4709 190.449Z" fill="#F6F8FC"/>
<path d="M115.024 182.087C118.965 182.087 122.159 178.967 122.159 175.119C122.159 171.27 118.965 168.15 115.024 168.15C111.084 168.15 107.889 171.27 107.889 175.119C107.889 178.967 111.084 182.087 115.024 182.087Z" fill="#F6F8FC"/>
<path d="M120.439 204.384C125.168 204.384 129.001 200.64 129.001 196.022C129.001 191.404 125.168 187.66 120.439 187.66C115.71 187.66 111.877 191.404 111.877 196.022C111.877 200.64 115.71 204.384 120.439 204.384Z" fill="#F6F8FC"/>
<path d="M93.0442 209.676C96.9847 209.676 100.179 206.556 100.179 202.708C100.179 198.859 96.9847 195.739 93.0442 195.739C89.1036 195.739 85.9092 198.859 85.9092 202.708C85.9092 206.556 89.1036 209.676 93.0442 209.676Z" fill="#F6F8FC"/>
<path d="M68.7701 209.403C72.2377 209.403 75.0489 206.658 75.0489 203.271C75.0489 199.884 72.2377 197.139 68.7701 197.139C65.3024 197.139 62.4914 199.884 62.4914 203.271C62.4914 206.658 65.3024 209.403 68.7701 209.403Z" fill="#F6F8FC"/>
<path d="M69.0604 228.634C73.0009 228.634 76.1953 225.513 76.1953 221.665C76.1953 217.815 73.0009 214.696 69.0604 214.696C65.1198 214.696 61.9254 217.815 61.9254 221.665C61.9254 225.513 65.1198 228.634 69.0604 228.634Z" fill="#F6F8FC"/>
<path d="M98.1795 232.251C102.908 232.251 106.741 228.508 106.741 223.888C106.741 219.27 102.908 215.527 98.1795 215.527C93.4509 215.527 89.6174 219.27 89.6174 223.888C89.6174 228.508 93.4509 232.251 98.1795 232.251Z" fill="#F6F8FC"/>
<path d="M132.139 228.634C137.655 228.634 142.128 224.266 142.128 218.879C142.128 213.491 137.655 209.123 132.139 209.123C126.622 209.123 122.15 213.491 122.15 218.879C122.15 224.266 126.622 228.634 132.139 228.634Z" fill="#F6F8FC"/>
<path d="M152.12 252.874C158.425 252.874 163.536 247.883 163.536 241.725C163.536 235.568 158.425 230.576 152.12 230.576C145.815 230.576 140.704 235.568 140.704 241.725C140.704 247.883 145.815 252.874 152.12 252.874Z" fill="#F6F8FC"/>
<path d="M110.159 256.226C115.675 256.226 120.148 251.858 120.148 246.469C120.148 241.081 115.675 236.714 110.159 236.714C104.642 236.714 100.17 241.081 100.17 246.469C100.17 251.858 104.642 256.226 110.159 256.226Z" fill="#F6F8FC"/>
<path d="M86.4778 275.181C91.9946 275.181 96.4667 270.811 96.4667 265.424C96.4667 260.036 91.9946 255.669 86.4778 255.669C80.9611 255.669 76.4888 260.036 76.4888 265.424C76.4888 270.811 80.9611 275.181 86.4778 275.181Z" fill="#F6F8FC"/>
<path d="M106.156 299.706C112.461 299.706 117.572 294.715 117.572 288.557C117.572 282.4 112.461 277.408 106.156 277.408C99.8515 277.408 94.7406 282.4 94.7406 288.557C94.7406 294.715 99.8515 299.706 106.156 299.706Z" fill="#F6F8FC"/>
<path d="M158.675 304.165C166.084 304.165 172.089 298.301 172.089 291.065C172.089 283.829 166.084 277.965 158.675 277.965C151.267 277.965 145.261 283.829 145.261 291.065C145.261 298.301 151.267 304.165 158.675 304.165Z" fill="#F6F8FC"/>
<path d="M129.857 280.751C136.162 280.751 141.273 275.76 141.273 269.602C141.273 263.445 136.162 258.453 129.857 258.453C123.553 258.453 118.442 263.445 118.442 269.602C118.442 275.76 123.553 280.751 129.857 280.751Z" fill="#F6F8FC"/>
<path d="M180.652 276.299C188.06 276.299 194.066 270.433 194.066 263.197C194.066 255.963 188.06 250.097 180.652 250.097C173.244 250.097 167.238 255.963 167.238 263.197C167.238 270.433 173.244 276.299 180.652 276.299Z" fill="#F6F8FC"/>
<path d="M74.4752 251.206C79.2038 251.206 83.0371 247.463 83.0371 242.843C83.0371 238.226 79.2038 234.482 74.4752 234.482C69.7465 234.482 65.9133 238.226 65.9133 242.843C65.9133 247.463 69.7465 251.206 74.4752 251.206Z" fill="#F6F8FC"/>
<path d="M412.2 90.3049H392.571V258.54H412.2V90.3049Z" fill="#F6F8FC"/>
<path d="M475.387 174.289C475.387 127.148 515.803 87.2251 563.331 87.2251C611.135 87.2251 650.974 126.851 650.974 174.289C650.974 221.726 610.86 261.352 563.331 261.352C516.078 261.622 475.387 221.726 475.387 174.289ZM631.345 174.289C631.345 136.906 600.329 105.092 563.331 105.092C526.334 105.092 495.045 136.906 495.045 174.289C495.045 211.968 526.334 243.754 563.331 243.754C600.329 243.754 631.345 211.968 631.345 174.289Z" fill="#F6F8FC"/>
<path d="M751.711 108.442H693.953V90.3049H828.847V108.442H771.063V258.54H751.436L751.711 108.442Z" fill="#F6F8FC"/>
<path d="M931.843 113.74L866.671 258.54H845.333L916.763 99.7925C919.329 93.927 925.311 90.3049 931.568 90.3049C938.103 90.3049 943.809 93.927 946.373 99.7925L1017.8 258.54H996.467L931.843 113.74Z" fill="#F6F8FC"/>
</svg>
